<?xml version="1.0" encoding="utf-8"?>

<!DOCTYPE svg PUBLIC "-//W3C//DTD SVG 1.1//EN" "http://www.w3.org/Graphics/SVG/1.1/DTD/svg11.dtd">
<svg version="1.1" id="Layer_1" xmlns="http://www.w3.org/2000/svg" xmlns:xlink="http://www.w3.org/1999/xlink" x="0px" y="0px"
	 viewBox="0 0 2683.9971 633.0491" enable-background="new 0 0 2683.9971 633.0491" xml:space="preserve">
<g>
	<path fill="none" d="M2610.9421,542.9126c-0.0728,0.0219-0.1399,0.0415-0.2034,0.0602
		C2610.8171,542.95,2610.8469,542.9406,2610.9421,542.9126z"/>
	<path fill="none" d="M64.5257,65.5702c-0.4059-0.0028-0.6551-0.0341-0.8231-0.0793
		C63.8706,65.5361,64.1188,65.5674,64.5257,65.5702z"/>
	<path fill="none" d="M2613.5532,541.9608c-0.0598,0.0303-0.1362,0.0611-0.2034,0.0919
		C2613.4187,542.0209,2613.4917,541.9915,2613.5532,541.9608z"/>
	<path fill="none" d="M2612.3103,542.4656c-0.0598,0.021-0.1157,0.0439-0.1755,0.0644
		C2612.1982,542.5081,2612.2468,542.4885,2612.3103,542.4656z"/>
	<rect x="1341.9965" y="302.7383" fill="none" width="0.0042" height="0"/>
	<path fill="none" d="M2306.6284,295.356c4.4028-8.5788,8.7981-17.1642,13.24-25.736
		C2315.4265,278.1918,2311.0313,286.7772,2306.6284,295.356z"/>
	<path fill="none" d="M311.9633,292.6008c3.9418-7.682,7.8761-15.3683,11.8441-23.0279
		C319.8403,277.2325,315.9051,284.9192,311.9633,292.6008z"/>
	<g>
		<path fill="none" d="M1045.8041,462.9221c0.1437-86.2015,0.2874-172.4149,0.4312-258.6283
			c0.0728-42.8973,0.1455-85.7947,0.2164-128.692c-11.0732,7.3236-21.4186,15.8437-31.0977,25.2381
			c0.0093,25.0986,0.0112,50.1733-0.0317,75.1411c-0.1437,86.2134-0.2874,172.4268-0.4311,258.6283
			c-0.0598,35.7672-0.1194,71.5412-0.1792,107.3116c9.6754,8.4661,20.0245,15.9786,31.0847,22.2765
			C1045.7238,530.2581,1045.748,496.5538,1045.8041,462.9221z"/>
		<path fill="none" d="M1482.2446,195.0904c0.0281-17.4639,0.056-34.9272,0.0822-52.3911
			c-11.2506,16.2231-21.5381,33.4342-31.0398,50.841c-0.1288,83.2592-0.2576,166.5189-0.3864,249.7675
			c-0.0056,3.6928-0.0112,7.3857-0.0187,11.0791c9.4252,16.789,19.668,33.1328,30.8923,48.3124
			c0.0131-9.628,0.0243-19.2566,0.0392-28.878C1481.9573,380.9196,1482.101,288.005,1482.2446,195.0904z"/>
		<path fill="none" d="M1389.5825,323.9779c9.6528,23.0938,19.5764,46.0209,30.0712,68.5918
			c0.069-45.479,0.1399-90.9591,0.209-136.4398C1409.3998,278.5129,1399.4314,301.2079,1389.5825,323.9779z"/>
		<path fill="none" d="M1544.5333,204.2939c0.0597-36.7406,0.1213-73.4812,0.1829-110.2224
			c-11.0266,7.3418-21.3625,15.8863-31.0529,25.3787c-0.0074,18.8619-0.0131,37.7301-0.0448,56.5308
			c-0.1437,86.2134-0.2874,172.4268-0.4312,258.6283c-0.0485,29.485-0.0989,58.9735-0.1475,88.4621
			c9.6698,8.5704,20.0021,16.1208,31.0249,22.4561c-0.0242-27.6202-0.0093-55.1496,0.0355-82.6053
			C1544.244,376.7207,1544.3877,290.5073,1544.5333,204.2939z"/>
		<path fill="none" d="M881.9562,324.0384c12.5794,29.8559,25.3884,59.684,39.3638,88.6752
			c0.0952-58.6982,0.1885-117.4001,0.2819-176.1031C907.7607,265.3712,894.8398,294.7689,881.9562,324.0384z"/>
		<path fill="none" d="M983.9484,198.6705c0.0392-23.6087,0.0765-47.2174,0.1139-70.8261c-0.4031,0.563-0.8306,1.107-1.2318,1.6722
			c-10.6608,15.0497-20.5228,30.7363-29.8062,46.8674c-0.14,87.8464-0.28,175.6928-0.4199,263.5267
			c-0.0168,10.4846-0.0336,20.9697-0.0504,31.4553c6.37,10.7454,12.934,21.3425,19.9796,31.5618
			c3.507,5.0874,7.18,10.0394,10.9314,14.9165c0.0112-16.1062,0.0262-32.2036,0.0523-48.2777
			C983.6609,379.2762,983.8047,288.9734,983.9484,198.6705z"/>
		<path fill="none" d="M1606.3871,462.9221c0.1438-86.2015,0.2893-172.4149,0.433-258.6283
			c0.0747-45.1206,0.1512-90.2413,0.2258-135.3619c-7.8593,1.3101-15.2109,3.1354-22.4041,5.4729
			c-2.9712,0.9656-5.8398,2.1382-8.7253,3.276c0.0635,32.9333,0.0448,65.6621-0.0093,98.3001
			c-0.1456,86.2134-0.2893,172.4268-0.433,258.6283c-0.0691,41.5509-0.1382,83.1101-0.2091,124.6631
			c10.1569,3.1754,20.5825,5.3432,31.1219,6.4084C1606.3105,531.2402,1606.3312,497.0405,1606.3871,462.9221z"/>
		<path fill="none" d="M1108.0908,462.9221c0.1438-86.2015,0.2875-172.4149,0.433-258.6283
			c0.0747-44.6692,0.1494-89.3385,0.224-134.0077c-10.2427-2.2767-20.672-3.578-31.1555-3.688
			c0.0989,36.6944,0.0784,73.0885,0.0168,109.3829c-0.1438,86.2134-0.2875,172.4268-0.4312,258.6283
			c-0.0729,43.7125-0.1456,87.4353-0.2184,131.1488c11.3551-0.95,21.441-2.902,31.1201-5.7505
			C1108.0181,527.49,1108.0367,495.1669,1108.0908,462.9221z"/>
		<path fill="none" d="M1233.1591,167.5838c-9.4943-14.075-19.722-27.5647-30.9204-39.8019
			c-0.0111,16.0819-0.028,32.1539-0.0541,48.199c-0.1437,86.2134-0.2893,172.4268-0.433,258.6283
			c-0.0317,19.8265-0.0653,39.655-0.099,59.4836c11.2076-13.2484,21.4877-27.5994,31.0305-42.3878
			c0.1382-82.4637,0.2762-164.9372,0.4143-247.4112C1233.118,192.0572,1233.1385,179.8205,1233.1591,167.5838z"/>
		<path fill="none" d="M1264.3967,220.0043c-0.097,59.2257-0.1979,118.4488-0.2949,177.6693
			c15.463-28.9386,29.5934-58.655,43.5054-88.5c-11.5006-25.5287-23.285-50.8913-36.0958-75.6656
			C1269.197,229.0303,1266.8192,224.5224,1264.3967,220.0043z"/>
		<path fill="none" d="M734.8012,204.2939c0.0298-18.1641,0.0597-36.3281,0.0914-54.4922
			c-9.5335-13.8643-19.7575-27.092-30.9503-39.3427c-0.0018,21.8843-0.0186,43.7265-0.0541,65.522
			c-0.1456,86.2134-0.2893,172.4268-0.433,258.6283c-0.041,25.4913-0.0858,50.9868-0.1269,76.4813
			c11.1833-13.1322,21.4298-27.2025,31.0305-41.8576c0.0038-2.1034,0.0075-4.2079,0.0093-6.3108
			C734.5119,376.7207,734.6575,290.5073,734.8012,204.2939z"/>
		<path fill="none" d="M672.0814,462.9221c0.1437-86.2015,0.2875-172.4149,0.433-258.6283
			c0.0671-40.8847,0.1362-81.7699,0.2053-122.6552c-6.6555-4.9997-13.5835-9.5723-20.8027-13.6028
			c-3.6506-0.9459-5.9706-1.1114-8.2905-1.2442c-0.6813-0.0405-1.3606-0.0296-2.0419-0.0607
			c0.0971,36.6498,0.0765,72.9997,0.015,109.25c-0.1437,86.2134-0.2874,172.4268-0.4312,258.6283
			c-0.0728,43.3187-0.1437,86.6461-0.2165,129.9669c10.9799-6.1287,21.3626-13.4186,31.079-21.685
			C672.0123,516.1509,672.0366,489.515,672.0814,462.9221z"/>
		<path fill="none" d="M765.7738,415.3644c15.9557-30.3193,30.2951-61.6726,44.4647-92.049
			c2.1986-4.7081,4.3897-9.4743,6.5809-14.2291c-15.8792-35.58-31.9674-72.4835-50.6873-107.4683
			C766.0127,272.8704,765.8932,344.121,765.7738,415.3644z"/>
		<path fill="none" d="M1170.8107,204.2939c0.0579-35.0325,0.1176-70.0656,0.1754-105.0987
			c-9.7145-7.2619-20.073-13.4632-31.0641-18.4909c0.0542,31.9132,0.028,63.6303-0.0243,95.2768
			c-0.1455,86.2134-0.2892,172.4268-0.433,258.6283c-0.0615,37.4623-0.125,74.9319-0.1866,112.3974
			c10.9912-5.9954,21.3291-13.1992,31.0604-21.3768c0.0018-20.9301,0.0056-41.8544,0.0392-62.7077
			C1170.5214,376.7207,1170.667,290.5073,1170.8107,204.2939z"/>
		<path fill="none" d="M1886.9512,309.7402c-2.1949,4.706-4.386,9.468-6.579,14.2192c12.0455,26.9913,24.2089,54.749,37.546,81.854
			c0.0896-54.0387,0.181-108.0805,0.2706-162.1245C1907.3414,265.7169,1897.1006,287.981,1886.9512,309.7402z"/>
		<path fill="none" d="M2509.78,434.6093c-0.0466,28.551-0.0952,57.1057-0.1418,85.6598
			c9.7461,8.7904,20.0784,16.6075,31.0173,23.225c-0.0205-26.9374-0.0076-53.7892,0.0374-80.5719
			c0.1455-86.2015,0.2893-172.4149,0.4331-258.6283c0.0596-36.1834,0.1211-72.3667,0.1809-108.5501
			c-10.9089,7.7148-21.2524,16.5956-31.0474,26.3692c-0.0093,17.9721-0.0166,35.9483-0.0483,53.868
			C2510.0693,262.1944,2509.9236,348.4078,2509.78,434.6093z"/>
		<path fill="none" d="M2042.3966,462.9221c0.1437-86.2015,0.2893-172.4149,0.433-258.6283
			c0.0709-42.5461,0.1418-85.0916,0.2128-127.6377c-10.0001,6.7316-19.4719,14.379-28.2758,22.9235
			c-0.963,0.9339-1.8682,1.927-2.8182,2.8739c0.0094,24.5584,0.0094,49.0935-0.0316,73.5274
			c-0.1456,86.2134-0.2893,172.4268-0.4331,258.6283c-0.0597,35.3081-0.1176,70.6223-0.1772,105.933
			c9.6566,8.654,20.0393,16.2827,31.079,22.7258C2042.3163,529.6422,2042.3424,496.2487,2042.3966,462.9221z"/>
		<path fill="none" d="M1980.5428,204.2939c0.0354-21.9268,0.0728-43.8531,0.1082-65.7799
			c-11.1647,14.7194-21.4578,30.2856-31.038,46.4453c-0.1381,83.2206-0.2761,166.4408-0.4161,249.65
			c-0.0168,9.4852-0.0317,18.9719-0.0466,28.4582c9.483,15.4235,19.7313,30.1823,30.9072,44.0316
			c0.0112-14.737,0.0281-29.4668,0.0522-44.1768C1980.2535,376.7207,1980.3972,290.5073,1980.5428,204.2939z"/>
		<path fill="none" d="M2447.4819,449.8369c1.4409,2.5358,2.8333,5.1065,4.3076,7.6202
			c8.1917,13.9719,17.0625,27.4697,26.5811,40.1725c0.0112-8.476,0.0225-16.9519,0.0354-25.424
			c0.1438-91.9056,0.2893-183.8239,0.4331-275.7422c0.0242-16.2776,0.0503-32.5557,0.0764-48.8338
			c-6.1851,8.7985-12.1165,17.8707-17.738,27.1626c-4.5837,7.5748-8.9829,15.2824-13.3018,23.0475
			c-0.127,81.3967-0.2556,162.7939-0.3826,244.1795C2447.4895,444.6247,2447.4856,447.2308,2447.4819,449.8369z"/>
		<path fill="none" d="M1815.2297,309.0589c-16.4055-37.1682-33.1731-74.3078-52.5013-109.6241
			c-0.1213,72.8244-0.2426,145.6477-0.3657,218.4622C1781.4203,382.5464,1798.3428,345.689,1815.2297,309.0589z"/>
		<path fill="none" d="M2416.4534,259.6131c-9.9907,21.2264-19.5261,42.7681-28.9253,64.3922
			c9.2219,21.94,18.6882,43.7207,28.7219,65.108C2416.3171,345.9475,2416.3843,302.7812,2416.4534,259.6131z"/>
		<path fill="none" d="M1638.194,175.981c-0.1437,86.2134-0.2892,172.4268-0.433,258.6283
			c-0.0728,43.6134-0.1455,87.2376-0.2184,130.852c11.0155-5.9896,21.3589-13.1841,31.0847-21.287
			c-0.0206-27.1719,0.0018-54.2359,0.0466-81.2521c0.1455-86.2015,0.2893-172.4149,0.433-258.6283
			c0.0691-41.265,0.1381-82.5306,0.2072-123.7956c-6.5902-4.8658-13.4398-9.3285-20.6123-13.2349
			c-3.507-0.3103-7.0232-0.4851-10.5245-0.606C1638.2743,103.3315,1638.2538,139.7063,1638.194,175.981z"/>
		<path fill="none" d="M2260.9966,215.8975c-0.1025,61.8952-0.2051,123.7884-0.3098,185.6768
			c9.8135-18.6238,18.9531-37.4286,27.7346-55.6368c5.8567-12.1428,11.5583-24.4293,17.2603-36.7266
			c-3.3071-7.3708-6.5659-14.7941-9.9441-22.0985C2284.9609,263.8044,2273.6172,239.5262,2260.9966,215.8975z"/>
		<path fill="none" d="M1700.0479,434.6093c-0.043,26.0854-0.0859,52.1755-0.1307,78.2641
			c5.002-5.8662,9.8396-11.8963,14.4496-18.1044c5.7578-7.7595,11.2543-15.7182,16.5828-23.8019
			c0.0056-2.6809,0.0076-5.3639,0.0132-8.0448c0.1437-86.2015,0.2874-172.4149,0.431-258.6283
			c0.0317-18.6673,0.0616-37.3352,0.0934-56.0031c-2.2808-3.3321-4.4589-6.7415-6.8217-10.0134
			c-7.4805-10.3584-15.5209-20.3023-24.1342-29.5892c0.0018,22.4773-0.0131,44.9131-0.0504,67.2929
			C1700.3372,262.1944,1700.1934,348.4078,1700.0479,434.6093z"/>
		<path fill="none" d="M2104.6833,462.9221c0.1455-86.2015,0.2893-172.4149,0.4331-258.6283
			c0.0747-44.7683,0.1492-89.5361,0.2239-134.3045c-10.2109-2.1979-20.6216-3.4384-31.1536-3.4535
			c0.0969,36.7152,0.0764,73.1305,0.0166,109.4451c-0.1436,86.2134-0.2891,172.4268-0.4329,258.6283
			c-0.0728,43.8168-0.1455,87.6439-0.2185,131.4617c10.5432-0.8089,20.9409-2.82,31.1201-5.7868
			C2104.6125,527.6736,2104.6311,495.2582,2104.6833,462.9221z"/>
		<path fill="none" d="M2229.7571,164.1402c-9.4924-13.6874-19.7368-26.5996-30.9241-38.3434
			c-0.0112,16.745-0.0278,33.4796-0.0559,50.1842c-0.1438,86.2134-0.2874,172.4268-0.4312,258.6283
			c-0.0354,20.625-0.0708,41.2531-0.1045,61.8807c11.187-12.7457,21.469-26.5876,31.0305-41.112
			c0.1382-83.6881,0.2781-167.3856,0.418-251.0841C2229.7124,190.9095,2229.7349,177.5246,2229.7571,164.1402z"/>
		<path fill="none" d="M2167.4031,204.2939c0.0598-35.3304,0.1177-70.6607,0.1775-105.9911
			c-1.3477-0.9775-2.6428-2.0298-4.0166-2.9736c-8.6189-5.9243-17.6951-10.9136-27.0513-15.0945
			c0.0542,32.0714,0.0298,63.9457-0.0225,95.7463c-0.1436,86.2134-0.2874,172.4268-0.4329,258.6283
			c-0.0618,37.6502-0.1252,75.3071-0.1885,112.9604c5.6382-2.9875,11.1851-6.2091,16.5435-9.8416
			c5.0076-3.3954,9.8098-7.0845,14.5205-10.9022c0.002-21.3296,0.002-42.6551,0.0393-63.9037
			C2167.1157,376.7207,2167.2595,290.5073,2167.4031,204.2939z"/>
		<path fill="none" d="M609.7946,462.9221c0.1437-86.2015,0.2875-172.4149,0.4312-258.6283
			c0.0765-45.2312,0.1531-90.4618,0.2277-135.6929c-10.602,1.7651-21.0099,4.6982-31.1313,8.6239
			c0.0644,33.0868,0.0457,65.9682-0.0093,98.7562c-0.1437,86.2134-0.2874,172.4268-0.4312,258.6283
			c-0.0699,41.676-0.139,83.3607-0.209,125.0383c10.1428,3.139,20.5507,5.2487,31.1238,6.2148
			C609.7181,531.3607,609.7367,497.1002,609.7946,462.9221z"/>
		<path fill="none" d="M236.5609,170.4043c-9.4924-14.0314-19.7809-27.3981-30.9166-39.613
			c-0.0131,15.0764-0.028,30.1449-0.0532,45.1897c-0.1446,86.2134-0.2884,172.4268-0.4321,258.6283
			c-0.0317,18.8661-0.0635,37.7358-0.0952,56.6045c11.1246-13.1929,21.4643-27.3841,30.9698-42.1191
			c0.0215-0.0327,0.0411-0.0669,0.0625-0.0996c0.1353-81.5609,0.2725-163.1305,0.4087-244.7012
			C236.5236,192.9974,236.5422,181.7009,236.5609,170.4043z"/>
		<path fill="none" d="M267.5121,395.2168c15.0029-28.0716,28.6966-57.0107,42.1625-86.0728
			c-13.1468-29.3329-26.7453-58.395-41.8742-86.4505C267.7043,280.2033,267.6082,337.7116,267.5121,395.2168z"/>
		<path fill="none" d="M408.7889,284.9988c-5.8577,12.8708-11.5604,25.8935-17.2622,38.9276
			c3.3054,7.8064,6.5612,15.6656,9.9385,23.4066c6.8982,15.8196,14.0445,32.0658,21.5875,48.2824
			c0.0746-47.3576,0.1493-94.7174,0.224-142.0777C418.3186,264.1208,413.4959,274.6538,408.7889,284.9988z"/>
		<path fill="none" d="M174.2172,204.2939c0.0569-34.1998,0.1148-68.4006,0.1708-102.6009
			c-9.7929-7.5395-20.1532-14.0475-31.0529-19.3979c0.0485,31.3762,0.0205,62.5625-0.0317,93.686
			c-0.1437,86.2134-0.2874,172.4268-0.4311,258.6283c-0.0625,37.1168-0.125,74.2403-0.1866,111.3607
			c10.868-6.4431,21.217-14.0656,31.0547-22.62c0.0047-20.1674,0.0112-40.329,0.0448-60.4279
			C173.9288,376.7207,174.0725,290.5073,174.2172,204.2939z"/>
		<path fill="none" d="M547.9389,204.2939c0.0626-37.0203,0.1241-74.0406,0.1866-111.0608
			c-1.1068,0.715-2.2452,1.3599-3.3389,2.1014c-9.8303,6.6642-19.0026,14.2675-27.7195,22.4763
			c-0.0056,19.4093-0.0084,38.8274-0.0411,58.1704c-0.1437,86.2134-0.2874,172.4268-0.4311,258.6283
			c-0.0504,29.9198-0.1008,59.8447-0.1512,89.7675c5.5301,4.718,11.2057,9.2419,17.1819,13.3491
			c4.4952,3.0887,9.1406,5.861,13.8486,8.4854c-0.0252-27.8495-0.0131-55.6077,0.0336-83.2892
			C547.6515,376.7207,547.7952,290.5073,547.9389,204.2939z"/>
		<path fill="none" d="M485.6521,197.2367c0.0298-18.2383,0.0578-36.4765,0.0868-54.7148
			c-11.2141,15.4017-21.4849,31.9053-31.0379,48.9812c-0.1316,83.2694-0.2622,166.5389-0.3938,249.7968
			c-0.0084,5.0128-0.0159,10.0261-0.0233,15.0394c9.4542,16.2765,19.6885,31.8267,30.8961,46.1826
			c0.0131-10.4088,0.0243-20.8197,0.041-31.2191C485.3647,379.9559,485.5084,288.5963,485.6521,197.2367z"/>
		<path d="M125.8396,471.5974c0.1437-86.2015,0.2874-172.4144,0.4321-258.6278c0.0765-45.9134,0.154-91.8264,0.2305-137.7403
			c-4.6818-1.6603-9.4728-3.0633-14.3488-4.2624c-0.0747,44.4425-0.1493,88.8845-0.223,133.327
			c-0.1446,86.2134-0.2884,172.4268-0.4321,258.6283c-0.0541,32.3745-0.0756,64.8231-0.014,97.4731
			c4.8582-1.6676,9.6249-3.5739,14.3058-5.7027C125.7668,526.8969,125.7929,499.2264,125.8396,471.5974z"/>
		<path fill="#858585" d="M143.3033,175.981c0.0523-31.1235,0.0803-62.3098,0.0317-93.686
			c-5.4648-2.6814-11.0807-5.0256-16.8329-7.0658c-0.0765,45.914-0.154,91.8269-0.2305,137.7403
			c-0.1446,86.2134-0.2884,172.4263-0.4321,258.6278c-0.0467,27.629-0.0728,55.2995-0.0495,83.0951
			c5.7531-2.6161,11.4092-5.4692,16.8954-8.7225c0.0616-37.1204,0.1241-74.244,0.1866-111.3607
			C143.0159,348.4078,143.1596,262.1944,143.3033,175.981z"/>
		<path d="M188.5585,212.9696c0.0551-33.0365,0.1111-66.073,0.1652-99.1095c-4.6585-4.2577-9.4056-8.3717-14.3357-12.1671
			c-0.056,34.2003-0.1138,68.4011-0.1708,102.6009c-0.1446,86.2134-0.2884,172.4268-0.4321,258.6283
			c-0.0336,20.0989-0.0401,40.2605-0.0448,60.4279c4.9207-4.278,9.6763-8.8439,14.3432-13.5535
			c0.0131-12.7363,0.0224-25.4809,0.0429-38.1991C188.2701,385.3959,188.4147,299.183,188.5585,212.9696z"/>
		<path fill="#858585" d="M205.5911,175.981c0.0252-15.0447,0.0401-30.1133,0.0532-45.1897
			c-5.4293-5.9549-11.0789-11.5938-16.9206-16.9313c-0.0541,33.0365-0.1101,66.073-0.1652,99.1095
			c-0.1437,86.2134-0.2884,172.4263-0.4321,258.6278c-0.0205,12.7182-0.0299,25.4628-0.0429,38.1991
			c5.8548-5.9097,11.5212-12.108,16.9803-18.5828c0.0317-18.8687,0.0635-37.7384,0.0952-56.6045
			C205.3027,348.4078,205.4464,262.1944,205.5911,175.981z"/>
		<path d="M250.8789,193.0342c-1.8197-3.0239-3.5956-6.0768-5.4657-9.068c-2.863-4.5815-5.8297-9.094-8.8522-13.5618
			c-0.0187,11.2965-0.0373,22.593-0.056,33.8895c-0.1362,81.5707-0.2734,163.1404-0.4087,244.7012
			c4.9748-7.7164,9.7295-15.5802,14.3945-23.5052c0.1185-70.8361,0.237-141.6769,0.3555-212.5203
			C250.8574,206.3247,250.8677,199.6792,250.8789,193.0342z"/>
		<path fill="#858585" d="M250.8789,193.0342c-0.0112,6.645-0.0215,13.2905-0.0327,19.9354
			c-0.1185,70.8434-0.237,141.6842-0.3555,212.5203c5.8642-9.9636,11.5548-20.0439,17.0214-30.2731
			c0.0961-57.5052,0.1923-115.0135,0.2884-172.5233C262.3879,212.6568,256.7402,202.7752,250.8789,193.0342z"/>
		<path d="M423.2767,253.5378c-0.0747,47.3603-0.1493,94.7201-0.224,142.0777c4.595,9.8798,9.3552,19.7299,14.3095,29.4822
			c0.1055-67.1161,0.2119-134.235,0.3173-201.3566C432.7187,233.6561,427.9258,243.6134,423.2767,253.5378z"/>
		<path fill="#858585" d="M454.701,191.5031c-5.923,10.5891-11.5837,21.3701-17.0214,32.2379
			c-0.1054,67.1216-0.2118,134.2405-0.3173,201.3566c5.3836,10.5973,11.0023,21.0506,16.9216,31.2416
			c0.0075-5.0133,0.0149-10.0266,0.0233-15.0394C454.4387,358.042,454.5694,274.7726,454.701,191.5031z"/>
		<path d="M499.9934,212.9696c0.0439-25.9189,0.0877-51.8372,0.1306-77.7561c-4.9758,5.601-9.7519,11.4428-14.3852,17.4475
			c-0.0289,17.2109-0.0569,34.4219-0.0868,51.6328c-0.1437,86.2134-0.2874,172.4268-0.4312,258.6283
			c-0.0168,9.8136-0.028,19.6381-0.041,29.4606c4.6128,5.5751,9.3711,10.979,14.3366,16.1245
			c0.0121-12.3088,0.0252-24.6181,0.0457-36.9098C499.706,385.3959,499.8497,299.183,499.9934,212.9696z"/>
		<path fill="#858585" d="M517.026,175.981c0.0327-19.3429,0.0355-38.761,0.0411-58.1704
			c-5.8633,5.5222-11.5287,11.3064-16.943,17.4029c-0.0429,25.9189-0.0868,51.8372-0.1306,77.7561
			c-0.1437,86.2134-0.2874,172.4263-0.4312,258.6278c-0.0205,12.2917-0.0336,24.601-0.0457,36.9098
			c5.4032,5.599,11.0648,10.868,16.9272,15.8697c0.0504-29.9229,0.1008-59.8478,0.1512-89.7675
			C516.7386,348.4078,516.8823,262.1944,517.026,175.981z"/>
		<path d="M562.2811,212.9696c0.0709-42.7007,0.1428-85.4014,0.2137-128.1026c-4.8899,2.545-9.6827,5.3354-14.3693,8.366
			c-0.0625,37.0203-0.1241,74.0406-0.1866,111.0608c-0.1437,86.2134-0.2874,172.4268-0.4312,258.6283
			c-0.0466,27.6814-0.0588,55.4396-0.0336,83.2892c4.6884,2.6135,9.47,4.9904,14.3413,7.1228
			c-0.0224-27.3254-0.0112-54.5705,0.0336-81.7367C561.9928,385.3959,562.1365,299.183,562.2811,212.9696z"/>
		<path fill="#858585" d="M579.3128,175.981c0.0551-32.788,0.0737-65.6694,0.0093-98.7562
			c-5.7177,2.2176-11.3252,4.7797-16.8273,7.6422c-0.0709,42.7012-0.1428,85.4019-0.2137,128.1026
			c-0.1447,86.2134-0.2883,172.4263-0.4321,258.6278c-0.0448,27.1662-0.056,54.4113-0.0336,81.7367
			c5.5226,2.4179,11.1385,4.5436,16.8572,6.3135c0.0699-41.6776,0.139-83.3623,0.209-125.0383
			C579.0254,348.4078,579.1691,262.1944,579.3128,175.981z"/>
		<path d="M624.1359,471.5974c0.1437-86.2015,0.2893-172.4144,0.4312-258.6278c0.0784-46.4821,0.1567-92.9642,0.2333-139.4469
			c0.0037-1.8284,1.0582-4.4606,1.9915-6.659c-5.4797,0.3041-10.9352,0.8374-16.3383,1.7371
			c-0.0746,45.2312-0.1512,90.4618-0.2277,135.6929c-0.1437,86.2134-0.2874,172.4268-0.4312,258.6283
			c-0.0579,34.178-0.0765,68.4385,0.0019,102.9403c4.4476,0.4063,8.9176,0.6652,13.4118,0.6652c0.3024,0,0.6047-0.0249,0.9071-0.027
			C624.0612,534.7208,624.0836,503.1241,624.1359,471.5974z"/>
		<path fill="#858585" d="M641.5996,175.981c0.0616-36.2503,0.0822-72.6002-0.015-109.25
			c-2.2154-0.1001-4.4308-0.1966-6.6387-0.1966c-2.7268,0-5.4406,0.179-8.1542,0.3295c-0.9332,2.1984-1.9877,4.8305-1.9915,6.659
			c-0.0765,46.4826-0.1549,92.9648-0.2333,139.4469c-0.1418,86.2134-0.2874,172.4263-0.4312,258.6278
			c-0.0522,31.5266-0.0746,63.1234-0.0205,94.9032c2.5905-0.0156,5.1848-0.0778,7.7791-0.2325
			c2.3237-0.137,4.6548-0.3098,6.9766-0.5189c0.446-0.2376,0.8922-0.4825,1.3363-0.7274c0.2538-0.1396,0.4927-0.3051,0.7447-0.4457
			c0.0728-43.3207,0.1437-86.6482,0.2165-129.9669C641.3122,348.4078,641.4559,262.1944,641.5996,175.981z"/>
		<path d="M686.8557,212.9696c0.0654-39.793,0.1325-79.5866,0.1997-119.3796c-4.6249-4.2079-9.3823-8.2285-14.3357-11.9513
			c-0.069,40.8852-0.1381,81.7705-0.2053,122.6552c-0.1456,86.2134-0.2893,172.4268-0.433,258.6283
			c-0.0448,26.5929-0.069,53.2288-0.0504,79.969c3.5517-3.0229,7.0269-6.1573,10.3995-9.4297
			c1.3494-1.3091,2.626-2.6939,3.9493-4.0284c0.0056-19.2978,0.0112-38.5981,0.0429-57.8357
			C686.5664,385.3959,686.7101,299.183,686.8557,212.9696z"/>
		<path fill="#858585" d="M703.8883,175.981c0.0355-21.7955,0.0522-43.6378,0.0541-65.522
			c-3.3931-3.7129-6.8701-7.3413-10.4387-10.8747c-2.0941-2.0728-4.2796-4.0211-6.4484-5.9943
			c-0.0672,39.793-0.1343,79.5866-0.1997,119.3796c-0.1456,86.2134-0.2892,172.4263-0.433,258.6278
			c-0.0317,19.2375-0.0374,38.5379-0.0429,57.8357c5.8567-5.9005,11.5361-11.9866,16.9486-18.3426
			c0.0411-25.4944,0.0859-50.9899,0.1269-76.4813C703.599,348.4078,703.7427,262.1944,703.8883,175.981z"/>
		<path d="M749.2115,171.867c-4.5839-7.5239-9.3712-14.8683-14.3189-22.0653c-0.0317,18.1641-0.0616,36.3281-0.0914,54.4922
			c-0.1437,86.2134-0.2893,172.4268-0.433,258.6283c-0.0018,2.1029-0.0056,4.2074-0.0093,6.3108
			c4.9646-7.5794,9.7687-15.3031,14.3936-23.1741c0.1307-77.6917,0.2595-155.3897,0.3901-233.0892
			C749.1649,199.2688,749.1891,185.5679,749.2115,171.867z"/>
		<path fill="#858585" d="M749.2115,171.867c-0.0224,13.7009-0.0467,27.4017-0.0691,41.1026
			c-0.1306,77.6995-0.2594,155.3975-0.3901,233.0892c5.909-10.0528,11.5585-20.3127,17.0214-30.6944
			c0.1194-71.2434,0.2389-142.4941,0.3583-213.7463C760.7271,191.5171,755.1187,181.5654,749.2115,171.867z"/>
		<path d="M936.0029,207.7301c-4.9366,9.5275-9.7257,19.1632-14.401,28.8803c-0.0933,58.703-0.1866,117.405-0.2819,176.1031
			c4.6119,9.5677,9.3917,19.0121,14.3115,28.3537c0.1251-77.7662,0.2482-155.5362,0.3714-233.3095
			C936.0029,207.7486,936.0029,207.7393,936.0029,207.7301z"/>
		<path fill="#858585" d="M953.0243,176.384c-5.9108,10.2682-11.5342,20.7561-17.0214,31.346c0,0.0092,0,0.0185,0,0.0277
			c-0.1232,77.7733-0.2463,155.5433-0.3714,233.3095c5.4106,10.2742,11.0415,20.3811,16.9225,30.2988
			c0.0168-10.4856,0.0336-20.9707,0.0504-31.4553C952.7443,352.0769,952.8843,264.2305,953.0243,176.384z"/>
		<path d="M998.2916,212.9696c0.0522-31.4006,0.1045-62.8016,0.1567-94.2022c-4.9907,5.7863-9.7836,11.7733-14.386,17.9077
			c-0.0374,22.5396-0.0747,45.0791-0.1139,67.6187c-0.1437,86.2134-0.2874,172.4268-0.4311,258.6283
			c-0.0261,15.3462-0.0411,30.7146-0.0523,46.0914c4.6025,5.7157,9.3469,11.2981,14.3339,16.609
			c0.0112-18.0297,0.0298-36.0402,0.0597-54.0252C998.0023,385.3959,998.1459,299.183,998.2916,212.9696z"/>
		<path fill="#858585" d="M1015.3223,175.981c0.043-24.9678,0.0411-50.0425,0.0317-75.1411
			c-5.8698,5.696-11.5137,11.6763-16.9057,17.9275c-0.0522,31.4006-0.1045,62.8017-0.1567,94.2022
			c-0.1456,86.2134-0.2893,172.4263-0.433,258.6278c-0.0298,17.985-0.0485,35.9955-0.0597,54.0252
			c5.392,5.7411,11.0471,11.1663,16.9131,16.2983c0.0598-35.7704,0.1194-71.5444,0.1792-107.3116
			C1015.0349,348.4078,1015.1786,262.1944,1015.3223,175.981z"/>
		<path d="M1060.1454,471.5974c0.1437-86.2015,0.2892-172.4144,0.431-258.6278c0.0785-46.4821,0.1569-92.9642,0.2334-139.4469
			c0.0037-1.76,0.9799-4.2572,1.8868-6.4042c-0.8324,0.0612-1.661,0.0706-2.4934,0.1442c-4.7183,2.5434-9.274,5.3764-13.7516,8.339
			c-0.0709,42.8973-0.1437,85.7947-0.2164,128.692c-0.1438,86.2134-0.2875,172.4268-0.4312,258.6283
			c-0.056,33.6317-0.0803,67.3359-0.0074,101.2752c0.907,0.5162,1.7731,1.1016,2.6895,1.6012
			c3.729,0.3305,7.4655,0.524,11.187,0.6444c0.1549,0.0005,0.2968-0.0062,0.4517-0.0062
			C1060.0707,534.6782,1060.0931,503.1033,1060.1454,471.5974z"/>
		<path fill="#858585" d="M1077.6091,175.981c0.0615-36.2944,0.082-72.6884-0.0168-109.3829
			c-0.4983-0.0052-0.9948-0.0633-1.495-0.0633c-1.5659,0-3.1281,0.0291-4.6958,0.0794c-2.8966,0.0949-5.8007,0.2916-8.7048,0.5043
			c-0.907,2.147-1.8832,4.6443-1.8868,6.4042c-0.0765,46.4826-0.1549,92.9648-0.2334,139.4469
			c-0.1418,86.2134-0.2874,172.4263-0.431,258.6278c-0.0522,31.5059-0.0747,63.0808-0.0206,94.8394
			c5.965,0.0093,11.5287-0.235,16.8348-0.6786c0.0728-43.7135,0.1455-87.4364,0.2184-131.1488
			C1077.3217,348.4078,1077.4653,262.1944,1077.6091,175.981z"/>
		<path d="M1122.4321,471.5974c0.1437-86.2015,0.2875-172.4144,0.433-258.6278c0.0765-46.2865,0.1549-92.5735,0.2314-138.8605
			c-4.7238-1.5125-9.5186-2.7494-14.3488-3.8229c-0.0746,44.6692-0.1493,89.3385-0.224,134.0077
			c-0.1455,86.2134-0.2892,172.4268-0.433,258.6283c-0.0541,32.2448-0.0728,64.5678-0.0111,97.0855
			c1.493-0.44,2.9862-0.8805,4.4662-1.3625c3.3502-1.0886,6.5977-2.3867,9.8396-3.6932
			C1122.3612,527.0703,1122.3873,499.311,1122.4321,471.5974z"/>
		<path fill="#858585" d="M1139.8977,175.981c0.0522-31.6465,0.0785-63.3636,0.0243-95.2768
			c-5.1382-2.3494-10.3678-4.5239-15.8064-6.3025c-0.3359-0.11-0.6813-0.1847-1.019-0.2926
			c-0.0765,46.287-0.1549,92.5741-0.2314,138.8605c-0.1455,86.2134-0.2893,172.4263-0.433,258.6278
			c-0.0448,27.7136-0.0709,55.4728-0.0466,83.3545c5.795-2.3348,11.4335-4.968,16.8926-7.9452
			c0.0616-37.4655,0.1251-74.9351,0.1866-112.3974C1139.6085,348.4078,1139.7522,262.1944,1139.8977,175.981z"/>
		<path d="M1185.152,212.9696c0.0559-33.9689,0.1138-67.9362,0.1698-101.9051c-4.6398-4.1731-9.3916-8.174-14.3357-11.8693
			c-0.0579,35.0331-0.1176,70.0661-0.1754,105.0987c-0.1437,86.2134-0.2893,172.4268-0.433,258.6283
			c-0.0336,20.8533-0.0374,41.7776-0.0392,62.7077c4.9365-4.1498,9.6958-8.5777,14.3357-13.1799
			c0.0131-13.621,0.0223-27.2523,0.0448-40.8525C1184.8627,385.3959,1185.0082,299.183,1185.152,212.9696z"/>
		<path fill="#858585" d="M1202.1846,175.981c0.0261-16.0451,0.043-32.1171,0.0541-48.199
			c-5.4012-5.9025-11.0638-11.4527-16.9169-16.7175c-0.056,33.9689-0.1139,67.9362-0.1698,101.9051
			c-0.1438,86.2134-0.2893,172.4263-0.433,258.6278c-0.0225,13.6002-0.0317,27.2316-0.0448,40.8525
			c5.8754-5.8268,11.5491-11.9388,16.9784-18.3571c0.0337-19.8286,0.0673-39.6571,0.099-59.4836
			C1201.8953,348.4078,1202.0409,262.1944,1202.1846,175.981z"/>
		<path d="M1247.4761,190.1203c-4.5745-7.6287-9.3413-15.1578-14.317-22.5365c-0.0205,12.2367-0.041,24.4733-0.0616,36.71
			c-0.1381,82.474-0.2761,164.9475-0.4143,247.4112c4.9982-7.7434,9.7874-15.5926,14.3954-23.4828
			c0.1213-71.7472,0.2408-143.4986,0.3602-215.2526C1247.4518,205.3528,1247.4648,197.7366,1247.4761,190.1203z"/>
		<path fill="#858585" d="M1247.4761,190.1203c-0.0112,7.6163-0.0243,15.2325-0.0374,22.8493
			c-0.1194,71.754-0.2389,143.5054-0.3602,215.2526c5.5936-9.5775,10.9501-19.1878,16.0453-28.6735
			c0.3323-0.6206,0.6458-1.2536,0.978-1.8752c0.097-59.2205,0.1979-118.4436,0.2949-177.6693
			C1259.0514,210.0282,1253.4093,200.0154,1247.4761,190.1203z"/>
		<path d="M1434.0752,226.5815c-4.8676,9.7667-9.5764,19.6341-14.2125,29.5484c-0.0691,45.4807-0.14,90.9608-0.209,136.4398
			c2.0063,4.3174,3.9679,8.664,6.0247,12.9507c2.6801,5.5902,5.4591,11.2262,8.283,16.8706
			c0.1027-65.3932,0.2035-130.7887,0.3062-196.1864C1434.204,226.3298,1434.1387,226.4562,1434.0752,226.5815z"/>
		<path fill="#858585" d="M1451.287,193.5404c-5.9501,10.9024-11.6313,21.8563-17.0195,32.6642
			c-0.1027,65.3977-0.2035,130.7932-0.3062,196.1864c5.3528,10.6955,10.9818,21.4151,16.9207,31.9959
			c0.0074-3.6934,0.0131-7.3863,0.0187-11.0791C1451.0294,360.0593,1451.1582,276.7996,1451.287,193.5404z"/>
		<path d="M1496.5859,212.9696c0.043-25.1312,0.0858-50.2625,0.127-75.3937c-4.9833,5.8231-9.7482,11.901-14.3861,18.1054
			c-0.0261,16.2044-0.0541,32.4082-0.0822,48.6125c-0.1437,86.2134-0.2874,172.4268-0.4312,258.6283
			c-0.0149,8.9274-0.0261,17.8616-0.0392,26.7952c4.6174,5.7914,9.3693,11.4236,14.3357,16.7834
			c0.0131-11.6395,0.0261-23.2789,0.0448-34.9034C1496.2985,385.3959,1496.4423,299.183,1496.5859,212.9696z"/>
		<path fill="#858585" d="M1513.6185,175.981c0.0317-18.8007,0.0374-37.6689,0.0448-56.5308
			c-5.866,5.7453-11.5267,11.7868-16.9504,18.1257c-0.0411,25.1312-0.084,50.2625-0.127,75.3937
			c-0.1437,86.2134-0.2875,172.4263-0.4312,258.6278c-0.0187,11.6244-0.0317,23.2639-0.0448,34.9034
			c5.4144,5.8428,11.064,11.3712,16.9299,16.5706c0.0486-29.4886,0.099-58.9772,0.1475-88.4621
			C1513.3312,348.4078,1513.4749,262.1944,1513.6185,175.981z"/>
		<path d="M1558.8746,212.9696c0.0709-42.5357,0.1418-85.0714,0.2128-127.6076c-4.9347,2.641-9.6959,5.5974-14.3712,8.7095
			c-0.0615,36.7411-0.1232,73.4818-0.1829,110.2224c-0.1456,86.2134-0.2893,172.4268-0.433,258.6283
			c-0.0448,27.4557-0.0597,54.9851-0.0355,82.6053c4.6586,2.6772,9.4215,5.1667,14.3431,7.3677
			c-0.0223-27.1792-0.0111-54.2764,0.0337-81.2978C1558.5853,385.3959,1558.729,299.183,1558.8746,212.9696z"/>
		<path fill="#858585" d="M1575.9072,175.981c0.0541-32.638,0.0728-65.3669,0.0093-98.3001
			c-5.7596,2.271-11.3998,4.7755-16.8291,7.6811c-0.0709,42.5362-0.1418,85.0719-0.2128,127.6076
			c-0.1456,86.2134-0.2893,172.4263-0.433,258.6278c-0.0448,27.0214-0.056,54.1186-0.0337,81.2978
			c4.7687,2.133,9.6268,4.101,14.6511,5.7442c0.7279,0.2387,1.4763,0.4047,2.2061,0.633c0.0709-41.553,0.14-83.1122,0.2091-124.6631
			C1575.6179,348.4078,1575.7616,262.1944,1575.9072,175.981z"/>
		<path d="M1620.7284,471.5974c0.1437-86.2015,0.2893-172.4144,0.433-258.6278c0.0765-46.4821,0.1549-92.9642,0.2333-139.4469
			c0.002-1.7776,0.9985-4.3086,1.9113-6.4696c-5.7261,0.3782-11.1031,1.019-16.26,1.8788
			c-0.0746,45.1206-0.1511,90.2413-0.2258,135.3619c-0.1437,86.2134-0.2892,172.4268-0.433,258.6283
			c-0.0559,34.1183-0.0765,68.3181,0,102.7586c4.7612,0.481,9.5336,0.7991,14.3208,0.8136
			C1620.6538,534.7161,1620.6761,503.122,1620.7284,471.5974z"/>
		<path fill="#858585" d="M1621.3947,73.5228c-0.0784,46.4826-0.1567,92.9648-0.2333,139.4469
			c-0.1437,86.2134-0.2893,172.4263-0.433,258.6278c-0.0522,31.5246-0.0746,63.1187-0.0205,94.897
			c0.1493,0.0005,0.2949,0.0187,0.4442,0.0187c1.5398,0,3.0814-0.0218,4.6287-0.0721c3.7196-0.1224,7.4655-0.317,11.1982-0.6481
			c0.1923-0.1032,0.3733-0.2272,0.5636-0.3315c0.0729-43.6144,0.1456-87.2386,0.2184-130.852
			c0.1438-86.2015,0.2893-172.4149,0.433-258.6283c0.0598-36.2747,0.0803-72.6495-0.0167-109.3237
			c-0.2202-0.0078-0.4424-0.0306-0.6626-0.0379c-4.9889-0.0187-9.6958,0.1359-14.2087,0.4338
			C1622.3932,69.2142,1621.3966,71.7452,1621.3947,73.5228z"/>
		<path d="M1668.674,462.9221c-0.0448,27.0162-0.0673,54.0802-0.0466,81.2521c4.9552-4.1274,9.7089-8.5362,14.3488-13.0964
			c0.0055-19.8478,0.0074-39.6986,0.0392-59.4805c0.1455-86.2015,0.2892-172.4144,0.433-258.6278
			c0.0671-40.2595,0.1344-80.5184,0.2015-120.7774c-4.6323-4.1098-9.3916-8.0417-14.3357-11.6939
			c-0.0691,41.265-0.1381,82.5306-0.2072,123.7956C1668.9633,290.5073,1668.8195,376.7207,1668.674,462.9221z"/>
		<path fill="#858585" d="M1683.0153,471.5974c-0.0317,19.7818-0.0337,39.6327-0.0392,59.4805
			c5.8865-5.7868,11.538-11.8641,16.941-18.2045c0.0448-26.0886,0.0878-52.1786,0.1307-78.2641
			c0.1455-86.2015,0.2893-172.4149,0.433-258.6283c0.0374-22.3798,0.0522-44.8156,0.0504-67.2929
			c-5.3809-5.8029-11.0229-11.2975-16.8815-16.4959c-0.0671,40.259-0.1344,80.518-0.2015,120.7774
			C1683.3044,299.183,1683.1608,385.3959,1683.0153,471.5974z"/>
		<path d="M1730.9626,462.9221c-0.0056,2.6809-0.0076,5.3639-0.0132,8.0448c4.959-7.5213,9.752-15.1656,14.3917-22.923
			c0.1326-78.3528,0.2632-156.7123,0.3938-235.0744c0.0243-14.2187,0.0466-28.4369,0.0709-42.6555
			c-4.5969-7.47-9.3767-14.8066-14.3188-22.0233c-0.0317,18.6679-0.0616,37.3358-0.0934,56.0031
			C1731.25,290.5073,1731.1063,376.7207,1730.9626,462.9221z"/>
		<path fill="#858585" d="M1745.3412,448.044c5.9089-9.878,11.5343-19.965,17.0215-30.147
			c0.1232-72.8145,0.2444-145.6378,0.3657-218.4622c-5.405-9.8764-11.049-19.5816-16.9225-29.1207
			c-0.0243,14.2187-0.0466,28.4369-0.0709,42.6555C1745.6044,291.3317,1745.4738,369.6912,1745.3412,448.044z"/>
		<path d="M1918.1888,243.6889c-0.0896,54.0439-0.181,108.0857-0.2706,162.1245c4.6136,9.3741,9.3693,18.6653,14.3096,27.822
			c0.1212-72.7242,0.2426-145.4547,0.3639-218.1867C1927.6476,224.7803,1922.8585,234.2079,1918.1888,243.6889z"/>
		<path fill="#858585" d="M1949.613,184.9593c-5.9126,9.9776-11.5566,20.1751-17.0214,30.4895
			c-0.1213,72.732-0.2427,145.4624-0.3639,218.1867c5.3976,10.003,11.021,19.8363,16.9225,29.432
			c0.0149-9.4862,0.0298-18.973,0.0466-28.4582C1949.3369,351.4001,1949.475,268.1799,1949.613,184.9593z"/>
		<path d="M1994.884,212.9696c0.0504-30.7821,0.1027-61.5647,0.1531-92.3468c-4.9757,5.7842-9.7444,11.7744-14.3861,17.8911
			c-0.0354,21.9268-0.0728,43.8531-0.1082,65.7799c-0.1456,86.2134-0.2893,172.4268-0.4331,258.6283
			c-0.0242,14.7101-0.041,29.4398-0.0522,44.1768c4.6174,5.7214,9.3711,11.309,14.3357,16.6838
			c0.0112-17.4154,0.0281-34.812,0.0579-52.1854C1994.5948,385.3959,1994.7385,299.183,1994.884,212.9696z"/>
		<path fill="#858585" d="M2011.9167,175.981c0.041-24.4339,0.041-48.969,0.0316-73.5274
			c-5.8511,5.8345-11.5006,11.8807-16.9113,18.1693c-0.0504,30.7821-0.1027,61.5647-0.1531,92.3468
			c-0.1455,86.2134-0.2892,172.4263-0.433,258.6278c-0.0298,17.3733-0.0466,34.77-0.0579,52.1854
			c3.0385,3.2906,6.1218,6.536,9.3021,9.6829c2.4711,2.4464,5.0374,4.7688,7.6111,7.0767
			c0.0597-35.3107,0.1176-70.6249,0.1772-105.933C2011.6274,348.4078,2011.7711,262.1944,2011.9167,175.981z"/>
		<path d="M2056.7378,471.5974c0.1438-86.2015,0.2893-172.4144,0.4331-258.6278c0.0764-46.4821,0.1548-92.9642,0.2334-139.4469
			c0.0017-1.7278,0.9443-4.1633,1.8364-6.2844c-0.3042,0.0265-0.6067,0.0394-0.9089,0.0675
			c-0.4536,0.2376-0.8977,0.4825-1.3494,0.7274c-4.7761,2.6358-9.3954,5.5637-13.9401,8.6228
			c-0.0709,42.5461-0.1418,85.0916-0.2128,127.6377c-0.1437,86.2134-0.2893,172.4268-0.433,258.6283
			c-0.0542,33.3266-0.0803,66.7201-0.0112,100.346c0.9761,0.5692,1.9111,1.2084,2.8966,1.7584
			c3.6414,0.9386,5.9668,1.1051,8.2886,1.2442c1.0508,0.0623,2.0979,0.0534,3.1467,0.0928
			C2056.665,534.6294,2056.6855,503.0794,2056.7378,471.5974z"/>
		<path fill="#858585" d="M2074.2034,175.981c0.0598-36.3146,0.0803-72.7299-0.0166-109.4451c-0.0691,0-0.1362-0.0083-0.2053-0.0083
			c-2.8835,0-5.7822,0.0866-8.6807,0.2594c-2.0193,0.1193-4.0408,0.274-6.0601,0.4514c-0.8921,2.1211-1.8347,4.5566-1.8364,6.2844
			c-0.0786,46.4826-0.157,92.9648-0.2334,139.4469c-0.1438,86.2134-0.2893,172.4263-0.4331,258.6278
			c-0.0522,31.482-0.0728,63.032-0.0205,94.7662c1.8459,0.0696,3.6936,0.164,5.5356,0.164c3.7795,0,7.5459-0.1686,11.2991-0.4566
			c0.073-43.8178,0.1458-87.6449,0.2185-131.4617C2073.9143,348.4078,2074.0598,262.1944,2074.2034,175.981z"/>
		<path d="M2119.0247,471.5974c0.1455-86.2015,0.2893-172.4144,0.4331-258.6278c0.0784-46.41,0.1548-92.8195,0.2314-139.23
			c-4.7222-1.5016-9.5168-2.71-14.3489-3.7503c-0.0747,44.7683-0.1492,89.5362-0.2239,134.3045
			c-0.1438,86.2134-0.2876,172.4268-0.4331,258.6283c-0.0522,32.3361-0.0708,64.7515-0.0112,97.362
			c4.8247-1.4061,9.6045-2.9865,14.3079-4.8492C2118.9539,527.3904,2118.98,499.4698,2119.0247,471.5974z"/>
		<path fill="#858585" d="M2136.4902,175.981c0.0522-31.8006,0.0767-63.6749,0.0225-95.7463
			c-5.5132-2.4635-11.1106-4.6785-16.8235-6.495c-0.0767,46.4105-0.1531,92.82-0.2314,139.23
			c-0.1438,86.2134-0.2876,172.4263-0.4331,258.6278c-0.0447,27.8723-0.0708,55.793-0.0447,83.8376
			c5.7446-2.2757,11.3662-4.9374,16.8889-7.8654c0.0632-37.6533,0.1267-75.3102,0.1885-112.9604
			C2136.2029,348.4078,2136.3467,262.1944,2136.4902,175.981z"/>
		<path d="M2181.7444,212.9696c0.0579-34.4322,0.114-68.8634,0.1736-103.2957c-4.6248-4.0004-9.4028-7.7942-14.3374-11.3712
			c-0.0598,35.3304-0.1177,70.6607-0.1775,105.9911c-0.1436,86.2134-0.2874,172.4268-0.4309,258.6283
			c-0.0374,21.2487-0.0374,42.5741-0.0393,63.9037c4.9365-4.0004,9.7034-8.2311,14.3337-12.6456
			c0.0132-14.1979,0.0225-28.4067,0.0466-42.5829C2181.457,385.3959,2181.6008,299.183,2181.7444,212.9696z"/>
		<path fill="#858585" d="M2198.7771,175.981c0.0281-16.7045,0.0447-33.4391,0.0559-50.1842
			c-5.405-5.6742-11.0471-11.0469-16.915-16.1229c-0.0596,34.4322-0.1157,68.8634-0.1736,103.2957
			c-0.1436,86.2134-0.2874,172.4263-0.4312,258.6278c-0.0242,14.1761-0.0334,28.385-0.0466,42.5829
			c5.8828-5.6098,11.5454-11.504,16.9749-17.6903c0.0337-20.6276,0.0691-41.2557,0.1045-61.8807
			C2198.4897,348.4078,2198.6333,262.1944,2198.7771,175.981z"/>
		<path d="M2244.0762,186.1832c-4.584-7.5218-9.3506-14.8797-14.3191-22.043c-0.0222,13.3844-0.0447,26.7693-0.0671,40.1536
			c-0.1399,83.6985-0.2798,167.396-0.418,251.0841c4.9814-7.5695,9.7686-15.313,14.3936-23.1798
			c0.123-73.0724,0.2444-146.1494,0.3657-219.2286C2244.0461,204.0407,2244.061,195.1122,2244.0762,186.1832z"/>
		<path fill="#858585" d="M2244.0762,186.1832c-0.0151,8.929-0.03,17.8574-0.0449,26.7864
			c-0.1213,73.0791-0.2427,146.1562-0.3657,219.2286c5.9182-10.0689,11.5864-20.3069,17.0212-30.6238
			c0.1047-61.8885,0.2073-123.7816,0.3098-185.6768C2255.6177,205.8229,2249.9907,195.8874,2244.0762,186.1832z"/>
		<path d="M2430.5596,418.5026c0.0989-62.8433,0.1958-125.6894,0.2947-188.5371c-4.9365,9.7876-9.7144,19.6863-14.4009,29.6476
			c-0.0691,43.168-0.1362,86.3344-0.2034,129.5002C2420.8879,399.0011,2425.6267,408.8207,2430.5596,418.5026z"/>
		<path fill="#858585" d="M2447.4819,449.8369c0.0037-2.606,0.0076-5.2121,0.0112-7.8177
			c0.127-81.3856,0.2556-162.7828,0.3826-244.1795c-5.8752,10.5648-11.5474,21.2751-17.0215,32.1259
			c-0.0989,62.8477-0.1958,125.6938-0.2947,188.5371C2435.9663,429.1122,2441.6252,439.5443,2447.4819,449.8369z"/>
		<path d="M2478.406,462.9221c-0.0129,7.9463-0.0242,15.8961-0.0354,23.846c4.625,5.7894,9.3804,11.4247,14.3337,16.7932
			c0.0132-10.6583,0.0261-21.3166,0.043-31.964c0.1438-86.2015,0.2893-172.4144,0.4331-258.6278
			c0.0391-24.1729,0.0801-48.3463,0.1213-72.5193c-4.9609,5.819-9.7483,11.8517-14.3862,18.0406
			c-0.0261,15.2678-0.0522,30.5356-0.0764,45.8029C2478.6953,290.5073,2478.5498,376.7207,2478.406,462.9221z"/>
		<path fill="#858585" d="M2492.7473,471.5974c-0.0168,10.6474-0.0298,21.3057-0.043,31.964
			c5.4312,5.8864,11.0938,11.4413,16.9338,16.7077c0.0466-28.5541,0.0952-57.1088,0.1418-85.6598
			c0.1436-86.2015,0.2893-172.4149,0.4312-258.6283c0.0317-17.9197,0.0391-35.8959,0.0483-53.868
			c-5.8435,5.8309-11.5081,11.9404-16.9578,18.3374c-0.0413,24.1729-0.0823,48.3464-0.1213,72.5193
			C2493.0366,299.183,2492.8911,385.3959,2492.7473,471.5974z"/>
		<path d="M2540.6929,462.9221c-0.0449,26.7828-0.0579,53.6346-0.0374,80.5719c4.679,2.8309,9.4365,5.5014,14.3413,7.8616
			c-0.0186-26.6619-0.0056-53.2459,0.0374-79.7583c0.1455-86.2015,0.2893-172.4144,0.4329-258.6278
			c0.071-42.1834,0.1418-84.3668,0.2109-126.5507c-4.9028,2.8599-9.6772,6.0063-14.3711,9.3249
			c-0.0598,36.1834-0.1213,72.3667-0.1809,108.5501C2540.9822,290.5073,2540.8384,376.7207,2540.6929,462.9221z"/>
		<path fill="#858585" d="M2555.467,212.9696c-0.1436,86.2134-0.2874,172.4263-0.4329,258.6278
			c-0.043,26.5124-0.0559,53.0964-0.0374,79.7583c5.4666,2.6306,11.1106,4.8685,16.8647,6.8572
			c0.0688-41.2002,0.1379-82.4061,0.2051-123.6037c0.1458-86.2015,0.2893-172.4149,0.4331-258.6283
			c0.0542-32.5763,0.0747-65.2398,0.0112-98.1082c-5.7297,2.5569-11.3645,5.3567-16.833,8.5461
			C2555.6089,128.6028,2555.5381,170.7862,2555.467,212.9696z"/>
	</g>
	<g>
		<path d="M2614.072,541.5324c0.0037,0.0103-0.0447,0.028-0.0466,0.0392c0.0149-0.1423-0.2314-0.244-1.0154-0.2501
			c-16.9561-0.0975-32.8203-2.8085-47.7551-7.4511c-5.7539-1.7885-11.3979-3.8009-16.8645-6.1665
			c-4.905-2.1226-9.6624-4.5241-14.3413-7.0699c-10.939-5.9509-21.2712-12.9807-31.0176-20.8857
			c-5.8398-4.736-11.5024-9.7313-16.9336-15.0248c-4.9534-4.8279-9.709-9.8956-14.3337-15.1018
			c-9.5186-10.7144-18.3896-22.0994-26.5811-33.8842c-1.4746-2.1202-2.8667-4.2885-4.3076-6.4274
			c-5.8567-8.6815-11.5156-17.4805-16.9226-26.4294c-4.9329-8.1664-9.6716-16.4489-14.3096-24.7888
			c-10.0337-18.0396-19.5-36.4108-28.7217-54.9165c-3.2717-6.5669-6.5269-13.1431-9.7629-19.7281
			c23.3445-45.4343,47.126-90.6946,76.9695-132.2916c40.6797-56.7082,96.0029-105.1525,167.4294-107.3791
			c-5.8696-2.0605-11.8794-3.7888-17.865-5.5058c-11.1702-3.1952-25.3044-9.3058-37.3667-9.3053
			c-66.6206,0.3877-119.512,37.532-159.1934,87.8814c-24.4478,31.0267-44.7559,64.7388-63.5615,99.32v-0.0019
			c-1.7544-3.3688-3.5237-6.7246-5.3042-10.0738c-32.686-61.4087-72.593-128.6736-138.2654-160.6765
			c-22.9377-11.1815-48.5034-16.4484-74.1382-16.4484c-8.7517,0-17.5085,0.6089-26.1799,1.8137
			c-29.4832,4.0878-59.0859,12.8855-87.1526,22.5772c-15.8866,5.4806-30.7281,13.1253-44.6625,22.4218
			c-55.8049,37.2497-91.9568,98.4694-123.1664,156.6054c-23.3354-45.4856-49.4368-89.8981-84.8756-126.3826
			c-23.4044-24.1057-50.8683-43.1046-83.2295-53.9277c-35.0432-11.7218-72.5948-23.0792-110.2548-23.0792
			c-9.75,0-19.5074,0.761-29.2294,2.4739c-71.8689,12.6625-121.3746,69.9026-158.1666,127.7847
			c-11.874,18.683-22.8707,37.8251-33.4344,57.2042c-0.0018,0.0023-0.0018,0.0042-0.0037,0.0065l-0.002-0.0079
			c-10.1288-19.3829-20.7037-38.5203-32.1633-57.2037c-35.5005-57.884-83.7222-115.1269-155.3092-127.7856
			c-9.6847-1.7166-19.4253-2.4748-29.1735-2.4748c-37.6617,0-75.4672,11.3565-110.7773,23.076
			c-32.5964,10.8255-60.4801,29.8262-84.4333,53.9324c-36.247,36.4855-63.3282,80.9012-87.679,126.3854
			c-29.9125-58.1374-64.7-119.3575-119.6762-156.6049c-13.716-9.2946-28.3914-16.9384-44.1642-22.4218
			c-27.8502-9.6931-57.2607-18.4893-86.6543-22.5772c-8.6432-1.201-17.3854-1.8141-26.1368-1.8141
			c-25.6367,0-51.3199,5.2665-74.5042,16.4484c-66.3723,32.0043-107.7911,99.2697-141.8376,160.675
			c-1.8552,3.345-3.6973,6.7064-5.5226,10.0705c-0.0019,0.0023-0.0028,0.0051-0.0038,0.0075l-0.0037-0.0107
			c-18.0349-34.5817-37.5871-68.2886-61.3443-99.3135c-38.5548-50.3499-90.6372-87.4965-157.4276-87.8852
			c-11.8721,0-26.1536,6.1152-37.393,9.3091c-6.0116,1.7171-12.0568,3.4467-17.9462,5.4872c-0.0952,0-4.4868,1.2687-3.7524,1.6793
			c0.0336,0.0187,0.0448,0.0411,0.0989,0.0555c0.168,0.0453,0.4171,0.0765,0.8231,0.0793
			c74.1645,0.4274,128.4221,48.8726,167.8401,105.5846c28.9093,41.5975,51.6876,86.8554,74.0208,132.2878l0.0019,0.0107
			c-1.103,2.1468-2.2154,4.289-3.3203,6.4344c-13.466,26.135-27.1596,52.1594-42.1625,77.4036
			c-5.4666,9.1989-11.1572,18.2639-17.0214,27.224c-4.665,7.1268-9.4196,14.1985-14.3945,21.1377
			c-0.0215,0.0294-0.0411,0.0602-0.0625,0.0896c-9.5055,13.2509-19.8453,26.0127-30.9698,37.8768
			c-5.4592,5.8227-11.1255,11.3966-16.9803,16.7112c-4.6669,4.2353-9.4224,8.3413-14.3432,12.1884
			c-9.8377,7.6928-20.1868,14.5475-31.0547,20.3417c-5.4862,2.9255-11.1423,5.4913-16.8954,7.8439
			c-4.6809,1.9144-9.4476,3.6287-14.3058,5.1284c-13.605,4.1993-27.866,6.8118-42.8792,7.2775
			c5.8698,2.0717,11.8786,3.8,17.8538,5.517c11.1591,3.1924,25.2895,9.295,37.3781,9.2941
			c66.6084-0.3878,119.511-37.5208,159.1931-87.8814c24.4412-31.0211,44.7484-64.7285,63.5541-99.3088
			c0-0.0005,0.0009-0.0005,0.0009-0.0009v-0.0005c1.7479,3.3614,3.5153,6.7162,5.2903,10.0645
			c32.6841,61.4147,72.606,128.6796,138.2645,160.683c22.9313,11.1815,48.483,16.4484,74.1057,16.4484
			c8.7636,0,17.5338-0.6154,26.2115-1.8272c29.4851-4.0748,59.0934-12.8724,87.1601-22.5641
			c15.8941-5.4932,30.7356-13.1249,44.6625-22.4213c55.8067-37.2507,91.9511-98.4774,123.1626-156.6138v0.0005
			c0,0.0019,0,0.0033,0.0019,0.0052c23.3354,45.4884,49.4349,89.9046,84.8701,126.3914
			c23.4138,24.1057,50.8776,43.1046,83.2295,53.9277c35.0525,11.7218,72.6041,23.0792,110.2659,23.0792
			c9.7482,0,19.5056-0.761,29.2275-2.4744c71.8689-12.662,121.3654-69.9021,158.1555-127.7847
			c11.8739-18.6806,22.8706-37.8213,33.4325-57.1995c0-0.0005,0-0.0023,0-0.0028c10.1344,19.381,20.7019,38.5161,32.1597,57.1972
			c35.5079,57.8845,83.7352,115.1273,155.3241,127.7856c9.6847,1.7171,19.4235,2.4749,29.1735,2.4749
			c37.6598,0,75.4653-11.3565,110.7698-23.076c32.6019-10.825,60.4857-29.8262,84.4258-53.9324
			c36.2545-36.4859,63.3507-80.9016,87.692-126.3924c-3.4827-6.7703-6.8925-13.4883-10.2726-20.135
			c-5.1959-10.2357-10.3062-20.5559-15.4032-30.9213c-1.0881,2.1193-2.1781,4.2465-3.2643,6.3686
			c-16.8871,32.9407-33.8096,66.0858-52.8672,97.8759c-5.4872,9.1565-11.1124,18.2276-17.0214,27.1106
			c-4.6399,6.9761-9.4327,13.8504-14.3917,20.6142c-5.3285,7.2696-10.8251,14.4267-16.5828,21.4046
			c-4.61,5.5828-9.4476,11.0056-14.4496,16.2809c-5.4032,5.7018-11.0546,11.167-16.9412,16.371
			c-4.6399,4.1009-9.3936,8.0656-14.3488,11.7773c-9.7257,7.2869-20.0692,13.7567-31.0846,19.1431
			c-0.1904,0.0938-0.3715,0.2053-0.5637,0.2982c-3.7327,0.2977-7.4785,0.4727-11.1982,0.5828
			c-1.5472,0.0453-3.0889,0.0649-4.6287,0.0649c-0.1493,0-0.2949-0.0164-0.4442-0.0168c-4.7872-0.0131-9.5596-0.2991-14.3207-0.7316
			c-10.5396-0.9579-20.9651-2.9073-31.1219-5.7629c-0.7297-0.2053-1.4781-0.3546-2.2061-0.5693
			c-5.0243-1.4777-9.8826-3.2475-14.6511-5.1656c-4.9216-1.9793-9.6847-4.218-14.3431-6.6257
			c-11.0229-5.6971-21.3552-12.487-31.0249-20.1943c-5.8661-4.6758-11.5156-9.6473-16.9299-14.9017
			c-4.9664-4.8199-9.7183-9.8848-14.3357-15.093c-11.2245-12.6662-21.4672-26.3039-30.8925-40.313
			c-5.9388-8.8289-11.5677-17.7736-16.9205-26.6981c-2.8239-4.7098-5.6029-9.4127-8.2831-14.0772
			c-2.0568-3.5769-4.0183-7.2038-6.0247-10.8064c-10.4946-18.8336-20.4182-37.9646-30.0712-57.2345
			c-3.2848-6.5571-6.551-13.1221-9.806-19.695c0.002-0.0009,0.002-0.0019,0.002-0.0028
			c15.3005-29.5887,30.7487-59.099,47.8558-87.7354c34.9761-58.5694,80.7491-122.6778,150.5649-143.0835
			c15.6328-4.5684,31.9001-7.0713,52.8746-7.0013c3.7197,0.1082,7.458,0.2823,11.187,0.5795
			c30.2598,14.8219,55.189,37.9921,75.9618,63.8611c41.9918,52.2975,70.8237,113.4495,100.2771,173.3819
			c5.0934,10.3612,10.2017,20.6819,15.4014,30.9185c3.3763,6.6434,6.7917,13.367,10.2764,20.1369
			c29.9125,58.1322,64.7,119.3641,119.678,156.6129c13.7291,9.2941,28.4027,16.9271,44.1643,22.4218
			c27.8501,9.6931,57.2606,18.4893,86.6561,22.5659c8.6526,1.2053,17.4058,1.8207,26.1704,1.8207
			c25.6255,0,51.2937-5.2665,74.4688-16.4438c66.3835-32.0042,107.791-99.2701,141.8394-160.6862
			c1.8572-3.3469,3.6936-6.6999,5.5227-10.0659l-0.0037-0.0093c18.0366,34.5813,37.5964,68.2947,61.3591,99.313
			c38.5613,50.3629,90.624,87.497,157.4592,87.8857c11.8591,0,26.1145-6.1026,37.3481-9.2964
			c6.0249-1.7166,12.0701-3.4463,17.9585-5.5002l6.4426,26.1635c0.0879,0,3.9978-1.1143,3.8804-1.5902L2614.072,541.5324z
			 M813.5015,303.4426c-1.0938,2.1431-2.1931,4.2567-3.2886,6.3933c-2.1912,4.2759-4.3823,8.562-6.5809,12.7959
			c-14.1696,27.3169-28.509,55.5123-44.4647,82.7778c-5.4629,9.3361-11.1124,18.5626-17.0214,27.6029
			c-4.6249,7.0782-9.429,14.024-14.3936,20.84c-9.6006,13.179-19.8471,25.8321-31.0305,37.6417
			c-5.4125,5.7158-11.0919,11.189-16.9486,16.4951c-1.3233,1.2001-2.5999,2.4454-3.9493,3.6226
			c-3.3726,2.9428-6.8478,5.7615-10.3995,8.4799c-9.7164,7.4338-20.0991,13.9895-31.079,19.5009
			c-0.252,0.1265-0.4908,0.2753-0.7447,0.4008c-0.4442,0.2202-0.8903,0.4404-1.3363,0.6542
			c-2.3218,0.188-4.6529,0.3434-6.9766,0.4666c-2.5943,0.139-5.1885,0.1951-7.7791,0.209
			c-0.3024,0.0019-0.6047,0.0243-0.9071,0.0243c-4.4943,0-8.9642-0.2328-13.4118-0.5982
			c-10.5731-0.8688-20.981-2.766-31.1238-5.5889c-5.7186-1.5916-11.3345-3.5032-16.8571-5.6776
			c-4.8713-1.9177-9.653-4.0552-14.3413-6.4054c-4.7079-2.36-9.3534-4.8531-13.8486-7.6307
			c-5.9761-3.6936-11.6519-7.7618-17.1819-12.0046c-5.8623-4.498-11.524-9.2363-16.9272-14.2713
			c-4.9655-4.6272-9.7239-9.4868-14.3366-14.5004c-11.2076-12.1828-21.4419-25.3791-30.8961-39.1917
			c-5.9193-8.6483-11.538-17.5193-16.9216-26.5124c-4.9543-8.276-9.7145-16.6351-14.3096-25.0193
			c-7.543-13.7617-14.6894-27.5487-21.5875-40.9736c-3.3772-6.5692-6.6331-13.2387-9.9385-19.8634
			c-3.2736-6.5576-6.5958-13.0703-9.8396-19.6638l0.0009-0.0005c6.8123-13.2551,13.6488-26.4625,20.6581-39.5342
			c33.7144-62.8677,72.4586-133.7226,135.9987-172.4622c27.2081-16.5865,58.316-25.8998,90.1603-25.8993
			c2.8873,0.0005,5.7839,0.077,8.6805,0.2314c2.3181,0.1194,4.6379,0.2683,8.2886,1.1189
			c15.1158,7.5887,29.0334,17.1931,41.5886,28.3709c56.7903,50.5598,90.5644,122.4343,123.6068,188.9904
			c3.1542,6.3522,6.2972,12.7558,9.4439,19.1873c3.3875,6.921,6.7993,13.8878,10.2241,20.8535
			C820.3044,317.3355,816.8926,310.3669,813.5015,303.4426z M1301.0007,309.9143c-13.9121,26.8391-28.0425,53.5624-43.5055,79.5863
			c-0.3322,0.559-0.6458,1.1282-0.9779,1.6863c-5.0952,8.5303-10.4518,17.1726-16.0453,25.7855
			c-4.6082,7.0955-9.3972,14.1542-14.3955,21.1176c-9.5427,13.2989-19.8228,26.2045-31.0304,38.1185
			c-5.4293,5.7718-11.1031,11.2683-16.9785,16.5082c-4.6398,4.1387-9.399,8.1206-14.3357,11.8524
			c-9.7313,7.354-20.0692,13.8322-31.0603,19.2238c-5.4592,2.6773-11.0975,5.0453-16.8927,7.145
			c-3.2418,1.1749-6.4894,2.3423-9.8396,3.3212c-1.48,0.4335-2.9731,0.8297-4.4662,1.2253
			c-9.6791,2.5616-19.765,4.317-31.1201,5.1713c-5.306,0.3989-10.8698,0.6187-16.8347,0.6103c-0.1549,0-0.2968,0.006-0.4517,0.0056
			c-3.7216-0.1083-7.4581-0.2823-11.1871-0.5795c-0.9164-0.4493-1.7823-0.9756-2.6895-1.4399
			c-11.0602-5.6635-21.4093-12.4194-31.0846-20.0328c-5.866-4.6151-11.5212-9.4939-16.9131-14.6567
			c-4.987-4.7761-9.7313-9.7962-14.3339-14.9362c-3.7514-4.1872-7.4244-8.4388-10.9314-12.8067
			c-7.0456-8.7739-13.6097-17.872-19.9796-27.0975c-5.881-8.5149-11.5118-17.1922-16.9225-26.0132
			c-4.9198-8.0203-9.6996-16.1288-14.3115-24.3432c-13.9755-24.8906-26.7844-50.4997-39.3639-76.1326
			c-3.2382-6.6-6.4689-13.2005-9.7033-19.7841c-0.0018-0.0028-0.0018-0.0061-0.0037-0.0089
			c30.786-59.9305,60.9841-121.0788,104.1385-173.3781c21.3477-25.8681,46.7921-49.0345,77.3746-63.8569
			c3.7346-0.2982,7.473-0.4731,11.1964-0.5832c1.5679-0.0453,3.13-0.0714,4.6978-0.0714c16.2842,0,32.4937,2.5075,48.0183,7.0745
			c69.366,20.407,113.7206,84.5168,147.3958,143.0811c16.467,28.6411,31.2526,58.15,45.8981,87.7363v0.0042
			C1303.246,305.6053,1302.1168,307.7572,1301.0007,309.9143z M2299.0752,309.9479c-5.7019,11.0588-11.4036,22.1078-17.2605,33.0275
			c-8.7813,16.3743-17.9209,33.2851-27.7344,50.0331c-5.4348,9.2778-11.103,18.4846-17.0215,27.5394
			c-4.6248,7.0745-9.4121,14.038-14.3936,20.8452c-9.5613,13.0614-19.8433,25.5092-31.0303,36.9712
			c-5.4294,5.5632-11.092,10.8638-16.9749,15.9086c-4.6304,3.9698-9.3972,7.7744-14.3337,11.3719
			c-4.7109,3.4332-9.5129,6.7507-14.5205,9.8041c-5.3584,3.2666-10.9053,6.1637-16.5437,8.8503
			c-5.5225,2.633-11.144,5.0267-16.8889,7.0731c-4.7031,1.6751-9.4829,3.0964-14.3076,4.3608
			c-10.1792,2.668-20.5769,4.4765-31.1201,5.2039c-3.7532,0.259-7.5195,0.4106-11.2991,0.4106c-1.842,0-3.6897-0.085-5.5356-0.1475
			c-1.0488-0.0355-2.0959-0.0275-3.1467-0.0835c-2.3218-0.1251-4.6473-0.2748-8.2886-1.1189
			c-0.9855-0.4946-1.9205-1.0695-2.8966-1.5813c-11.0397-5.7942-21.4224-12.6545-31.0791-20.4369
			c-2.5737-2.0754-5.14-4.1639-7.6111-6.3639c-3.1803-2.8299-6.2635-5.7485-9.302-8.7076
			c-4.9646-4.8335-9.7183-9.8582-14.3357-15.0034c-11.1759-12.4544-21.4242-25.7267-30.9073-39.5967
			c-5.9015-8.6292-11.5249-17.4722-16.9225-26.4677c-4.9403-8.2345-9.6958-16.5898-14.3096-25.0198
			c-13.3372-24.375-25.5004-49.3369-37.546-73.6097c-0.0952-0.1908-0.1903-0.384-0.2855-0.5748
			c-3.1542-6.3518-6.2953-12.7553-9.444-19.1869c0-0.0023-0.0018-0.0047-0.0037-0.007c3.2922-6.4265,6.579-12.8333,9.8694-19.1818
			c34.5244-66.559,69.8961-138.4296,127.8156-188.9932c12.8033-11.1754,26.9319-20.7826,42.2157-28.369
			c0.4517-0.2202,0.8977-0.4405,1.3494-0.6542c2.3237-0.1946,4.6472-0.3434,6.9709-0.4666
			c2.8984-0.1554,5.7952-0.2328,8.6787-0.2328c31.8479,0,62.7498,9.3156,89.5825,25.9003
			c62.6807,38.7405,99.8516,109.5945,132.1755,172.4668c6.7207,13.067,13.2605,26.2764,19.7781,39.5309l0.0037,0.007
			C2301.3521,305.6281,2300.1968,307.7721,2299.0752,309.9479z"/>
		<g>
			<path fill="#858585" d="M70.9666,91.7336c12.0643,0.0695,23.5482,1.5267,34.5803,3.9661
				c4.8759,1.0783,9.6669,2.34,14.3487,3.8331c5.7522,1.8347,11.3681,3.9427,16.8329,6.3541
				c10.8997,4.8115,21.26,10.664,31.0529,17.4442c4.9301,3.4131,9.6772,7.1128,14.3357,10.9417
				c5.8418,4.7999,11.4913,9.8708,16.9206,15.226c11.1358,10.9846,21.4242,23.005,30.9166,35.6232
				c3.0226,4.0179,5.9892,8.0758,8.8522,12.1959c1.8701,2.6899,3.646,5.4354,5.4657,8.1547
				c5.8614,8.7599,11.5091,17.6462,16.9216,26.672c15.1289,25.2298,28.7274,51.3647,41.8742,77.7432
				c1.1049-2.1454,2.2173-4.2875,3.3203-6.4344l-0.0019-0.0107c-22.3331-45.4324-45.1114-90.6904-74.0208-132.2878
				c-39.418-56.7119-93.6756-105.1572-167.8401-105.5846c-0.4069-0.0028-0.6551-0.0341-0.8231-0.0793
				c-0.0541-0.0145-0.0653-0.0369-0.0989-0.0555c-0.0457-0.0257-0.1297-0.0448-0.1381-0.0765l6.4428,26.1634
				C69.9391,91.6473,70.2452,91.728,70.9666,91.7336z"/>
			<path fill="#858585" d="M875.3496,323.2332c12.8837-25.1295,25.8046-50.369,39.6458-75.0617
				c4.6753-8.3427,9.4644-16.6155,14.401-24.7954c5.4872-9.0921,11.1106-18.0965,17.0214-26.9123
				c9.2834-13.8495,19.1453-27.3173,29.8061-40.2383c0.4013-0.4853,0.8287-0.9523,1.2318-1.4357
				c4.6025-5.5166,9.3954-10.9006,14.3861-16.1041c5.392-5.6215,11.0359-10.9995,16.9057-16.1218
				c9.6791-8.4482,20.0245-16.1102,31.0977-22.6962c4.4774-2.6643,9.0332-5.2119,13.7515-7.4991
				c0.8324-0.0663,1.6611-0.0747,2.4935-0.1297c2.9041-0.1913,5.8081-0.3681,8.7047-0.4535c1.5679-0.0453,3.13-0.0714,4.6959-0.0714
				c0.5001,0,0.9966,0.0523,1.4949,0.0569c10.4835,0.0989,20.9128,1.2691,31.1556,3.3166
				c4.8302,0.9654,9.6249,2.0778,14.3488,3.4379c0.3378,0.0971,0.683,0.1642,1.019,0.2632
				c5.4386,1.5995,10.6682,3.555,15.8064,5.6677c10.9911,4.5213,21.3495,10.0981,31.064,16.6285
				c4.9441,3.3231,9.6959,6.921,14.3357,10.6738c5.853,4.7345,11.5156,9.7257,16.917,15.0337
				c11.1982,11.0047,21.426,23.1357,30.9203,35.793c4.9758,6.6355,9.7426,13.4062,14.317,20.2666
				c5.9332,8.8985,11.5753,17.9028,16.9207,26.8741c2.4226,4.0631,4.8004,8.1169,7.1146,12.1436
				c12.8109,22.279,24.5952,45.0871,36.0959,68.0446c1.1161-2.1571,2.2452-4.309,3.3613-6.4675v-0.0042
				c-14.6455-29.5864-29.431-59.0953-45.8981-87.7363c-33.6752-58.5643-78.0298-122.6741-147.3958-143.0811
				c-15.5247-4.567-31.7341-7.0745-48.0183-7.0745c-1.5677,0-3.1299,0.0261-4.6978,0.0714
				c-3.7234,0.1101-7.4618,0.2851-11.1964,0.5832c-30.5825,14.8223-56.0269,37.9888-77.3746,63.8569
				c-43.1545,52.2993-73.3525,113.4476-104.1385,173.3781c0.0019,0.0028,0.0019,0.0061,0.0037,0.0089
				C868.8807,310.0328,872.1115,316.6332,875.3496,323.2332z"/>
			<path fill="#858585" d="M402.1823,290.0751c4.707-8.779,9.5298-17.7176,14.4878-26.6986
				c4.6492-8.4221,9.442-16.8721,14.4029-25.2862c5.4377-9.2227,11.0984-18.3717,17.0214-27.3579
				c9.5531-14.4911,19.8238-28.4964,31.038-41.5667c4.6333-5.3999,9.4094-10.6533,14.3852-15.6902
				c5.4144-5.4825,11.0798-10.6841,16.943-15.6501c8.7169-7.382,17.8893-14.2195,27.7195-20.2125
				c1.0938-0.6668,2.2322-1.2467,3.339-1.8897c4.6865-2.7254,9.4794-5.2347,14.3693-7.5234
				c5.5021-2.5742,11.1097-4.8783,16.8273-6.8725c10.1214-3.5303,20.5293-6.1679,31.1313-7.7553
				c5.4031-0.8091,10.8586-1.2887,16.3383-1.5622c2.7137-0.1353,5.4274-0.2963,8.1542-0.2963c2.2079,0,4.4233,0.0868,6.6387,0.1768
				c0.6813,0.028,1.3606,0.0182,2.0419,0.0546c2.3199,0.1195,4.6398,0.2683,8.2905,1.1189
				c7.2192,3.6245,14.1472,7.7366,20.8027,12.2327c4.9534,3.3478,9.7108,6.9635,14.3357,10.7476
				c2.1688,1.7745,4.3542,3.5265,6.4484,5.3906c3.5685,3.1775,7.0456,6.4404,10.4387,9.7794
				c11.1927,11.0168,21.4167,22.9122,30.9503,35.3801c4.9478,6.4722,9.735,13.0768,14.3188,19.8429
				c5.9071,8.7216,11.5156,17.6709,16.9207,26.7546c18.7198,31.4612,34.808,64.6478,50.6873,96.6441
				c1.0955-2.1365,2.1948-4.2502,3.2886-6.3933c3.3912,6.9243,6.8029,13.8929,10.2296,20.8601
				c-3.4248-6.9658-6.8365-13.9325-10.2241-20.8535c-3.1467-6.4315-6.2897-12.8351-9.4439-19.1873
				c-33.0424-66.5562-66.8165-138.4306-123.6068-188.9904c-12.5551-11.1778-26.4728-20.7822-41.5886-28.3709
				c-3.6507-0.8506-5.9706-0.9995-8.2886-1.1189c-2.8966-0.1544-5.7933-0.231-8.6805-0.2314
				c-31.8442-0.0005-62.9521,9.3128-90.1603,25.8993c-63.5401,38.7396-102.2843,109.5945-135.9987,172.4622
				c-7.0092,13.0717-13.8458,26.2791-20.6581,39.5342l-0.0009,0.0005c3.2438,6.5935,6.5659,13.1062,9.8396,19.6638
				C390.622,312.049,396.3247,300.9976,402.1823,290.0751z"/>
			<path fill="#858585" d="M1873.4801,322.636c0.0952,0.1908,0.1903,0.384,0.2855,0.5748c2.193-4.2726,4.3842-8.555,6.579-12.787
				c10.1494-19.5676,20.3903-39.5893,31.2377-59.3986c4.6697-8.5261,9.4589-17.0042,14.4028-25.3959
				c5.4648-9.2755,11.1088-18.4459,17.0215-27.4186c9.5801-14.5321,19.8732-28.5305,31.038-41.7673
				c4.6416-5.5007,9.4103-10.8875,14.3861-16.0892c5.4106-5.6551,11.0602-11.0924,16.9113-16.3392
				c0.95-0.8515,1.8552-1.7446,2.8182-2.5845c8.8037-7.6839,18.2756-14.5611,28.2756-20.6147
				c4.5447-2.751,9.1639-5.384,13.9402-7.7544c0.4517-0.2202,0.8958-0.4405,1.3494-0.6542
				c0.3022-0.0252,0.6047-0.0369,0.9089-0.0607c2.0193-0.1596,4.0405-0.2986,6.0601-0.4059
				c2.8984-0.1554,5.7969-0.2333,8.6804-0.2333c0.0691,0,0.1365,0.0075,0.2053,0.0075c10.532,0.0135,20.9429,1.1292,31.1538,3.1057
				c4.832,0.9355,9.6267,2.0222,14.3486,3.3726c5.7131,1.6336,11.3103,3.6255,16.8237,5.8408
				c9.3562,3.7598,18.4324,8.2466,27.0513,13.5742c1.3738,0.8487,2.6689,1.795,4.0164,2.6741
				c4.9348,3.2167,9.7126,6.6285,14.3376,10.2259c5.8679,4.5647,11.51,9.3963,16.915,14.499
				c11.187,10.5609,21.4316,22.1726,30.9241,34.4814c4.9683,6.4418,9.7351,13.0586,14.3188,19.8228
				c5.9146,8.7267,11.5417,17.6616,16.9207,26.7215c12.6206,21.2488,23.9644,43.0817,34.741,64.0421
				c3.3782,6.5687,6.6367,13.2443,9.9441,19.8728c1.1216-2.1758,2.2769-4.3198,3.3967-6.4983l-0.0037-0.007
				c-6.5176-13.2546-13.0574-26.4639-19.7781-39.5309c-32.324-62.8724-69.4949-133.7263-132.1755-172.4668
				c-26.8328-16.5847-57.7346-25.9003-89.5825-25.9003c-2.8835,0-5.7803,0.0775-8.6787,0.2328
				c-2.3237,0.1232-4.6472,0.272-6.9709,0.4666c-0.4517,0.2137-0.8977,0.4339-1.3494,0.6542
				c-15.2838,7.5864-29.4124,17.1936-42.2157,28.369c-57.9194,50.5636-93.2911,122.4342-127.8156,188.9932
				c-3.2904,6.3485-6.5771,12.7553-9.8694,19.1818c0.0018,0.0023,0.0037,0.0046,0.0037,0.007
				C1867.1848,309.8807,1870.3259,316.2842,1873.4801,322.636z"/>
			<path fill="#858585" d="M2409.8469,268.8627c4.6863-8.402,9.4644-16.7512,14.4009-25.0067
				c5.4741-9.1523,11.146-18.1861,17.0215-27.0971c4.3188-6.5496,8.7178-13.0507,13.3018-19.4398
				c5.6216-7.8374,11.5527-15.4896,17.738-22.9108c4.6379-5.5656,9.4253-10.9907,14.386-16.2235
				c5.45-5.7527,11.1145-11.2468,16.958-16.4904c9.7949-8.7893,20.1382-16.7755,31.0474-23.7133
				c4.6938-2.9843,9.468-5.8138,14.3711-8.3857c5.4685-2.8682,11.103-5.3859,16.833-7.6853
				c17.4768-7.0125,36.1331-11.3476,56.094-11.97l-6.4409-26.1634c-71.4265,2.2266-126.7498,50.6709-167.4294,107.3791
				c-29.8435,41.597-53.625,86.8573-76.9695,132.2916c3.2361,6.5851,6.4912,13.1613,9.7629,19.7281
				C2390.3208,304.9362,2399.856,286.7664,2409.8469,268.8627z"/>
			<path fill="#858585" d="M2592.2334,548.6228c-11.2336,3.1938-25.489,9.2964-37.3481,9.2964
				c-66.8352-0.3887-118.8979-37.5227-157.4592-87.8857c-23.7627-31.0183-43.3225-64.7318-61.3591-99.313l0.0037,0.0093
				c-1.8291,3.366-3.6655,6.719-5.5227,10.0659c-34.0483,61.4161-75.4558,128.682-141.8394,160.6862
				c-23.175,11.1773-48.8433,16.4438-74.4688,16.4438c-8.7646,0-17.5178-0.6154-26.1704-1.8207
				c-29.3955-4.0766-58.806-12.8729-86.6561-22.5659c-15.7616-5.4947-30.4352-13.1277-44.1643-22.4218
				c-54.978-37.2488-89.7655-98.4807-119.678-156.6129c-3.4846-6.7698-6.9-13.4935-10.2764-20.1369
				c-5.1997-10.2366-10.308-20.5573-15.4014-30.9185c-29.4534-59.9324-58.2853-121.0844-100.2771-173.3819
				c-20.7728-25.869-45.702-49.0392-75.9618-63.8611c-3.729-0.2972-7.4673-0.4713-11.187-0.5795
				c-20.9745-0.07-37.2418,2.4328-52.8746,7.0013c-69.8158,20.4056-115.5889,84.514-150.5649,143.0835
				c-17.1072,28.6364-32.5553,58.1467-47.8558,87.7354c0,0.0009,0,0.0019-0.002,0.0028c3.255,6.5729,6.5212,13.1379,9.806,19.695
				c9.8489-18.9998,19.8173-37.937,30.2802-56.6139c4.6361-8.2727,9.345-16.5063,14.2125-24.6559
				c0.0635-0.1045,0.1288-0.21,0.1923-0.3145c5.3883-9.0184,11.0696-18.1585,17.0195-27.2557
				c9.5018-14.5247,19.7893-28.886,31.0398-42.4229c4.6381-5.5795,9.4028-11.0452,14.3861-16.2819
				c5.4237-5.7004,11.0845-11.1334,16.9506-16.3c9.6902-8.5364,20.0262-16.2203,31.0529-22.8226
				c4.6753-2.7986,9.4364-5.4573,14.3711-7.8323c5.4293-2.6129,11.0696-4.8652,16.8292-6.9075
				c2.8854-1.0232,5.754-2.0778,8.7253-2.9461c7.193-2.102,14.5447-3.7435,22.4041-4.9217
				c5.1569-0.7731,10.5338-1.3494,16.2599-1.6895c4.5129-0.2678,9.22-0.4069,14.2087-0.3901
				c0.2203,0.0065,0.4424,0.0271,0.6626,0.0341c3.5013,0.1087,7.0176,0.266,10.5245,0.545
				c7.1725,3.513,14.0222,7.5262,20.6123,11.9019c4.9441,3.2844,9.7034,6.8202,14.3357,10.5161
				c5.8586,4.6748,11.5007,9.6161,16.8815,14.8345c8.6134,8.3516,16.6538,17.2939,24.1342,26.609
				c2.3629,2.9424,4.541,6.0083,6.8217,9.0048c4.9423,6.4899,9.722,13.0875,14.319,19.8051
				c5.8734,8.5784,11.5175,17.306,16.9225,26.1877c19.3282,31.7593,36.0958,65.1582,52.5013,98.5828
				c1.0862-2.1221,2.1761-4.2493,3.2643-6.3686c5.097,10.3654,10.2073,20.6856,15.4032,30.9213
				c3.3801,6.6467,6.7899,13.3647,10.2726,20.135c-24.3413,45.4908-51.4375,89.9065-87.692,126.3924
				c-23.9401,24.1062-51.8239,43.1074-84.4258,53.9324c-35.3044,11.7195-73.11,23.076-110.7698,23.076
				c-9.75,0-19.4888-0.7578-29.1735-2.4749c-71.5889-12.6583-119.8162-69.9012-155.3241-127.7856
				c-11.4578-18.6811-22.0253-37.8162-32.1597-57.1972c0,0.0005,0,0.0023,0,0.0028
				c-10.5619,19.3782-21.5586,38.5189-33.4325,57.1995c-36.7902,57.8826-86.2866,115.1227-158.1555,127.7847
				c-9.7219,1.7134-19.4794,2.4744-29.2275,2.4744c-37.6617,0-75.2134-11.3574-110.2659-23.0792
				c-32.3519-10.8232-59.8157-29.822-83.2295-53.9277c-35.4352-36.4868-61.5347-80.903-84.8701-126.3914
				c-0.0019-0.0019-0.0019-0.0033-0.0019-0.0052v-0.0005c-31.2115,58.1364-67.3559,119.3631-123.1626,156.6138
				c-13.9269,9.2964-28.7684,16.9281-44.6625,22.4213c-28.0667,9.6917-57.675,18.4893-87.1601,22.5641
				c-8.6777,1.2118-17.4479,1.8272-26.2115,1.8272c-25.6226,0-51.1743-5.2669-74.1057-16.4484
				c-65.6584-32.0034-105.5804-99.2682-138.2645-160.683c-1.7749-3.3483-3.5424-6.7031-5.2903-10.0645v0.0005
				c0,0.0005-0.0009,0.0005-0.0009,0.0009c-18.8057,34.5804-39.1129,68.2877-63.5541,99.3088
				c-39.6821,50.3606-92.5847,87.4937-159.1931,87.8814c-12.0886,0.0009-26.2189-6.1017-37.3781-9.2941
				c-5.9752-1.717-11.984-3.4453-17.8538-5.517l6.4428,26.1635c5.8688,2.0717,11.8777,3.7999,17.8529,5.517
				c11.1591,3.1924,25.2904,9.295,37.3781,9.2941c66.6084-0.3878,119.511-37.5213,159.1922-87.8815
				c24.4422-31.0211,44.7503-64.7289,63.5559-99.3102c1.7488,3.3614,3.5163,6.7162,5.2912,10.0645
				c32.6841,61.4147,72.6051,128.6797,138.2635,160.6825c22.9323,11.1819,48.4831,16.4489,74.1057,16.4489
				c8.7636,0,17.5338-0.6155,26.2124-1.8272c29.4833-4.0748,59.0934-12.8724,87.1582-22.5641
				c15.896-5.4937,30.7356-13.1249,44.6626-22.4213c55.8067-37.2507,91.951-98.4774,123.1626-156.6143
				c0,0.0019,0.0018,0.0042,0.0018,0.0061c23.3373,45.4879,49.4368,89.9046,84.8701,126.3914
				c23.4156,24.1057,50.8795,43.1046,83.2295,53.9278c35.0526,11.7218,72.6042,23.0792,110.2659,23.0792
				c9.748,0,19.5074-0.761,29.2294-2.4744c71.8669-12.662,121.3634-69.9021,158.1536-127.7847
				c11.8759-18.6811,22.8707-37.8232,33.4344-57.2023c10.1344,19.381,20.7019,38.5161,32.1577,57.1972
				c35.5099,57.8845,83.7372,115.1269,155.3242,127.7856c9.6846,1.717,19.4253,2.4748,29.1753,2.4748
				c37.6598,0,75.4653-11.3564,110.7698-23.0759c32.6019-10.825,60.4857-29.8262,84.4258-53.9324
				c36.2545-36.4859,63.3489-80.9016,87.692-126.3929l-0.0037-0.0112c0.0037,0.0056,0.0074,0.0117,0.0093,0.0172
				c29.9144,58.1322,64.7019,119.3636,119.6781,156.6129c13.7291,9.2941,28.4045,16.9272,44.1661,22.4218
				c27.8501,9.6931,57.2605,18.4888,86.6543,22.566c8.6526,1.2052,17.4077,1.8207,26.1704,1.8207
				c25.6272,0,51.2957-5.2665,74.4705-16.4438c66.3835-32.0043,107.7913-99.2701,141.8376-160.6862
				c1.8589-3.3478,3.6956-6.7008,5.5247-10.0677c18.033,34.5789,37.5925,68.2896,61.3535,99.3056
				c38.5613,50.363,90.624,87.4969,157.4612,87.8857c11.8589,0,26.1143-6.1027,37.3462-9.2965
				c6.0247-1.717,12.0701-3.4467,17.9602-5.5002l-6.4426-26.1635C2604.3035,545.1765,2598.2583,546.9062,2592.2334,548.6228z"/>
		</g>
	</g>
</g>
</svg>
